<svg width="56" height="49" viewBox="0 0 56 49" fill="none" xmlns="http://www.w3.org/2000/svg">
    <path fill-rule="evenodd" clip-rule="evenodd" d="M26.5499 0.87868C27.7215 2.05025 27.7215 3.94975 26.5499 5.12132L10.2426 21.4286H53C54.6569 21.4286 56 22.7717 56 24.4286C56 26.0854 54.6569 27.4286 53 27.4286H10.2426L26.5499 43.7358C27.7215 44.9074 27.7215 46.8069 26.5499 47.9785C25.3783 49.15 23.4788 49.15 22.3073 47.9785L0.87868 26.5499C0.316071 25.9873 0 25.2242 0 24.4286C0 23.6329 0.316071 22.8699 0.87868 22.3072L22.3073 0.87868C23.4788 -0.292893 25.3783 -0.292893 26.5499 0.87868Z" fill="#4BAA3F"/>
</svg>
