<svg width="56" height="49" viewBox="0 0 56 49" fill="none" xmlns="http://www.w3.org/2000/svg">
    <path fill-rule="evenodd" clip-rule="evenodd" d="M29.4501 47.9784C28.2785 46.8069 28.2785 44.9074 29.4501 43.7358L45.7574 27.4285L3 27.4286C1.34315 27.4286 -1.99077e-06 26.0854 -2.13561e-06 24.4286C-2.28046e-06 22.7717 1.34314 21.4286 3 21.4286L45.7574 21.4285L29.4501 5.1213C28.2785 3.94973 28.2785 2.05023 29.4501 0.878661C30.6217 -0.292913 32.5212 -0.292913 33.6927 0.87866L55.1213 22.3072C55.6839 22.8698 56 23.6329 56 24.4285C56 25.2242 55.6839 25.9873 55.1213 26.5499L33.6927 47.9784C32.5212 49.15 30.6217 49.15 29.4501 47.9784Z" fill="#4BAA3F"/>
</svg>
