<svg width="16" height="18" viewBox="0 0 16 18" fill="none" xmlns="http://www.w3.org/2000/svg">
    <path fill-rule="evenodd" clip-rule="evenodd" d="M8 2C6.81093 2 5.64944 2.34885 4.66246 3.00122C3.6756 3.65351 2.90808 4.5795 2.45528 5.66084C2.00253 6.74207 1.88423 7.93119 2.11486 9.0783C2.34551 10.2255 2.91513 11.2807 3.75342 12.11L7.46654 15.7823C7.60636 15.9205 7.79819 16 8.00044 16C8.20269 16 8.39452 15.9205 8.53434 15.7823L12.2466 12.11C12.2466 12.11 12.2466 12.11 12.2466 12.11C13.0849 11.2807 13.6545 10.2255 13.8851 9.0783C14.1158 7.93119 13.9975 6.74207 13.5447 5.66084C13.0919 4.5795 12.3244 3.65351 11.3375 3.00122C10.3506 2.34885 9.18907 2 8 2ZM3.55964 1.33275C4.87493 0.463375 6.42016 0 8 0C9.57984 0 11.1251 0.463375 12.4404 1.33275C13.7558 2.2022 14.7827 3.43912 15.3895 4.88835C15.9964 6.3377 16.1554 7.93316 15.8459 9.47252C15.5364 11.0118 14.7727 12.4243 13.6532 13.5318L9.94052 17.2045C9.42407 17.7149 8.72583 18 8.00044 18C7.27504 18 6.57717 17.7152 6.06072 17.2049L2.34694 13.5319C1.22736 12.4244 0.463586 11.0118 0.1541 9.47252C-0.1554 7.93316 0.00358802 6.3377 0.610484 4.88835C1.21733 3.43912 2.24423 2.2022 3.55964 1.33275ZM8 6.32767C7.0923 6.32767 6.375 7.05273 6.375 7.9244C6.375 8.79607 7.0923 9.52113 8 9.52113C8.90769 9.52113 9.625 8.79607 9.625 7.9244C9.625 7.05273 8.90769 6.32767 8 6.32767ZM4.375 7.9244C4.375 5.9278 6.0082 4.32767 8 4.32767C9.99179 4.32767 11.625 5.9278 11.625 7.9244C11.625 9.921 9.99179 11.5211 8 11.5211C6.0082 11.5211 4.375 9.921 4.375 7.9244Z" fill="white"/>
</svg>
