<svg width="18" height="18" viewBox="0 0 18 18" fill="none" xmlns="http://www.w3.org/2000/svg">
    <path fill-rule="evenodd" clip-rule="evenodd" d="M10.6667 1C10.6667 0.447715 11.1144 0 11.6667 0C13.3464 0 14.9573 0.66726 16.145 1.85499C17.3327 3.04272 18 4.65363 18 6.33333C18 6.88562 17.5523 7.33333 17 7.33333C16.4477 7.33333 16 6.88562 16 6.33333C16 5.18406 15.5435 4.08186 14.7308 3.2692C13.9181 2.45655 12.8159 2 11.6667 2C11.1144 2 10.6667 1.55228 10.6667 1ZM2.77778 2.88889C2.5715 2.88889 2.37367 2.97083 2.22781 3.11669C2.08778 3.25672 2.00666 3.44464 2.00039 3.64196C2.20425 6.85213 3.57142 9.8784 5.84651 12.1535C8.1216 14.4286 11.1479 15.7958 14.358 15.9996C14.5554 15.9933 14.7433 15.9122 14.8833 15.7722C15.0292 15.6263 15.1111 15.4285 15.1111 15.2222V12.3437L12.086 11.1337L11.1908 12.6256C10.9231 13.0719 10.3578 13.2382 9.89102 13.008C7.76336 11.9586 6.04135 10.2366 4.99203 8.10898C4.76183 7.64222 4.92812 7.07693 5.37439 6.80917L6.86635 5.914L5.6563 2.88889H2.77778ZM0.813592 1.70248C1.33453 1.18155 2.04107 0.888889 2.77778 0.888889H6.33333C6.74224 0.888889 7.10995 1.13784 7.26181 1.5175L9.03959 5.96194C9.22187 6.41766 9.04648 6.9383 8.62561 7.19083L7.23442 8.02554C7.93217 9.13151 8.86849 10.0678 9.97446 10.7656L10.8092 9.37439C11.0617 8.95352 11.5823 8.77813 12.0381 8.96041L16.4825 10.7382C16.8622 10.8901 17.1111 11.2578 17.1111 11.6667V15.2222C17.1111 15.9589 16.8185 16.6655 16.2975 17.1864C15.7766 17.7073 15.07 18 14.3333 18C14.3131 18 14.2929 17.9994 14.2727 17.9982C10.5616 17.7726 7.06129 16.1967 4.4323 13.5677C1.8033 10.9387 0.227368 7.43844 0.00184143 3.72733C0.000614107 3.70713 0 3.6869 0 3.66667C0 2.92995 0.292658 2.22342 0.813592 1.70248ZM10.6667 4.55556C10.6667 4.00327 11.1144 3.55556 11.6667 3.55556C12.4034 3.55556 13.1099 3.84821 13.6309 4.36915C14.1518 4.89008 14.4444 5.59662 14.4444 6.33333C14.4444 6.88562 13.9967 7.33333 13.4444 7.33333C12.8922 7.33333 12.4444 6.88562 12.4444 6.33333C12.4444 6.12705 12.3625 5.92922 12.2166 5.78336C12.0708 5.6375 11.8729 5.55556 11.6667 5.55556C11.1144 5.55556 10.6667 5.10784 10.6667 4.55556Z" fill="white"/>
</svg>
