<svg width="60" height="60" viewBox="0 0 60 60" fill="none" xmlns="http://www.w3.org/2000/svg">
<path fill-rule="evenodd" clip-rule="evenodd" d="M30 3.5C15.3645 3.5 3.5 15.3645 3.5 30C3.5 44.6355 15.3645 56.5 30 56.5C44.6355 56.5 56.5 44.6355 56.5 30C56.5 15.3645 44.6355 3.5 30 3.5ZM0.5 30C0.5 13.7076 13.7076 0.5 30 0.5C46.2924 0.5 59.5 13.7076 59.5 30C59.5 46.2924 46.2924 59.5 30 59.5C13.7076 59.5 0.5 46.2924 0.5 30ZM18.9388 18.9399C19.5243 18.3538 20.474 18.3533 21.0601 18.9388L30.0104 27.8798L38.9606 18.9388C39.5467 18.3533 40.4965 18.3538 41.082 18.9399C41.6674 19.526 41.667 20.4757 41.0809 21.0612L32.1328 30L41.0809 38.9388C41.667 39.5243 41.6674 40.474 41.082 41.0601C40.4965 41.6462 39.5467 41.6467 38.9606 41.0612L30.0104 32.1202L21.0601 41.0612C20.474 41.6467 19.5243 41.6462 18.9388 41.0601C18.3533 40.474 18.3538 39.5243 18.9399 38.9388L27.888 30L18.9399 21.0612C18.3538 20.4757 18.3533 19.526 18.9388 18.9399Z" fill="#465067"/>
</svg>
